<svg xmlns="http://www.w3.org/2000/svg" viewBox="0 0 80 80">
<pattern x="-49.6" y="-2096.6" width="258.4" height="221" patternUnits="userSpaceOnUse" viewBox="67.9 -285.2 258.4 221">
	<rect x="67.9" y="-285.2" class="st0" width="258.4" height="221"/>
	<line class="st1" x1="326.8" y1="-83.1" x2="265.4" y2="-21.7"/>
	<line class="st2" x1="292.6" y1="-85.9" x2="292.6" y2="-85.9"/>
	<line class="st1" x1="275.1" y1="-68.4" x2="213.7" y2="-7"/>
	<line class="st2" x1="241" y1="-71.2" x2="241" y2="-71.2"/>
	<line class="st2" x1="85.9" y1="-100.6" x2="85.9" y2="-100.6"/>
	<line class="st1" x1="68.4" y1="-83.1" x2="7" y2="-21.7"/>
	<line class="st1" x1="378.5" y1="-97.8" x2="317.1" y2="-36.5"/>
	<line class="st1" x1="326.8" y1="-156.8" x2="265.4" y2="-95.4"/>
	<line class="st2" x1="256.6" y1="-86.6" x2="256.6" y2="-86.6"/>
	<line class="st2" x1="292.6" y1="-159.6" x2="292.6" y2="-159.6"/>
	<line class="st1" x1="275.1" y1="-142.1" x2="213.7" y2="-80.7"/>
	<line class="st2" x1="205" y1="-71.9" x2="205" y2="-71.9"/>
	<line class="st2" x1="241" y1="-144.9" x2="241" y2="-144.9"/>
	<line class="st1" x1="223.4" y1="-127.3" x2="162" y2="-65.9"/>
	<line class="st2" x1="189.3" y1="-130.1" x2="189.3" y2="-130.1"/>
	<line class="st1" x1="171.7" y1="-112.6" x2="110.4" y2="-51.2"/>
	<line class="st2" x1="137.6" y1="-115.4" x2="137.6" y2="-115.4"/>
	<line class="st1" x1="120.1" y1="-97.8" x2="58.7" y2="-36.5"/>
	<line class="st2" x1="85.9" y1="-174.3" x2="85.9" y2="-174.3"/>
	<line class="st1" x1="68.4" y1="-156.8" x2="7" y2="-95.4"/>
	<line class="st1" x1="378.5" y1="-171.5" x2="317.1" y2="-110.1"/>
	<line class="st2" x1="308.3" y1="-101.4" x2="308.3" y2="-101.4"/>
	<line class="st1" x1="326.8" y1="-230.5" x2="265.4" y2="-169.1"/>
	<line class="st2" x1="256.6" y1="-160.3" x2="256.6" y2="-160.3"/>
	<line class="st2" x1="292.6" y1="-233.3" x2="292.6" y2="-233.3"/>
	<line class="st1" x1="275.1" y1="-215.7" x2="213.7" y2="-154.4"/>
	<line class="st2" x1="205" y1="-145.6" x2="205" y2="-145.6"/>
	<line class="st2" x1="241" y1="-218.5" x2="241" y2="-218.5"/>
	<line class="st1" x1="223.4" y1="-201" x2="162" y2="-139.6"/>
	<line class="st2" x1="153.3" y1="-130.9" x2="153.3" y2="-130.9"/>
	<line class="st2" x1="189.3" y1="-203.8" x2="189.3" y2="-203.8"/>
	<line class="st1" x1="171.7" y1="-186.3" x2="110.4" y2="-124.9"/>
	<line class="st2" x1="101.6" y1="-116.1" x2="101.6" y2="-116.1"/>
	<line class="st2" x1="137.6" y1="-189.1" x2="137.6" y2="-189.1"/>
	<line class="st1" x1="120.1" y1="-171.5" x2="58.7" y2="-110.1"/>
	<line class="st2" x1="85.9" y1="-248" x2="85.9" y2="-248"/>
	<line class="st1" x1="68.4" y1="-230.5" x2="7" y2="-169.1"/>
	<line class="st1" x1="378.5" y1="-245.2" x2="317.1" y2="-183.8"/>
	<line class="st2" x1="308.3" y1="-175.1" x2="308.3" y2="-175.1"/>
	<line class="st1" x1="326.8" y1="-304.2" x2="265.4" y2="-242.8"/>
	<line class="st2" x1="256.6" y1="-234" x2="256.6" y2="-234"/>
	<line class="st1" x1="275.1" y1="-289.4" x2="213.7" y2="-228"/>
	<line class="st2" x1="205" y1="-219.3" x2="205" y2="-219.3"/>
	<line class="st1" x1="223.4" y1="-274.7" x2="162" y2="-213.3"/>
	<line class="st2" x1="153.3" y1="-204.5" x2="153.3" y2="-204.5"/>
	<line class="st2" x1="189.3" y1="-277.5" x2="189.3" y2="-277.5"/>
	<line class="st1" x1="171.7" y1="-259.9" x2="110.4" y2="-198.6"/>
	<line class="st2" x1="101.6" y1="-189.8" x2="101.6" y2="-189.8"/>
	<line class="st2" x1="137.6" y1="-262.7" x2="137.6" y2="-262.7"/>
	<line class="st1" x1="120.1" y1="-245.2" x2="58.7" y2="-183.8"/>
	<line class="st1" x1="68.4" y1="-304.2" x2="7" y2="-242.8"/>
	<line class="st1" x1="378.5" y1="-318.9" x2="317.1" y2="-257.5"/>
	<line class="st2" x1="308.3" y1="-248.7" x2="308.3" y2="-248.7"/>
	<line class="st1" x1="223.4" y1="-348.4" x2="162" y2="-287"/>
	<line class="st2" x1="153.3" y1="-278.2" x2="153.3" y2="-278.2"/>
	<line class="st1" x1="171.7" y1="-333.6" x2="110.4" y2="-272.2"/>
	<line class="st2" x1="101.6" y1="-263.5" x2="101.6" y2="-263.5"/>
	<line class="st1" x1="120.1" y1="-318.9" x2="58.7" y2="-257.5"/>
</pattern>
<pattern x="-49.6" y="-2096.6" width="96" height="100" patternUnits="userSpaceOnUse" viewBox="3.5 -201.4 96 100">
	<rect x="3.5" y="-201.4" class="st0" width="96" height="100"/>
	<rect x="96" y="-102.7" class="st3" width="7.5" height="102"/>
	<line class="st4" x1="96" y1="-102" x2="96"/>
	<rect x="72" y="-102.7" class="st3" width="7.5" height="102"/>
	<line class="st4" x1="80" y1="-102.5" x2="80" y2="-0.5"/>
	<line class="st4" x1="72" y1="-102" x2="72"/>
	<rect x="48" y="-102.7" class="st3" width="7.5" height="102"/>
	<line class="st4" x1="56" y1="-102.5" x2="56" y2="-0.5"/>
	<line class="st4" x1="48" y1="-102" x2="48"/>
	<rect x="24" y="-102.7" class="st3" width="7.5" height="102"/>
	<line class="st4" x1="32" y1="-102.5" x2="32" y2="-0.5"/>
	<line class="st4" x1="24" y1="-102" x2="24"/>
	<rect y="-102.7" class="st3" width="7.5" height="102"/>
	<line class="st4" x1="8" y1="-102.5" x2="8" y2="-0.5"/>
	<rect x="96" y="-202.7" class="st3" width="7.5" height="102"/>
	<line class="st4" x1="96" y1="-202" x2="96" y2="-100"/>
	<rect x="72" y="-202.7" class="st3" width="7.5" height="102"/>
	<line class="st4" x1="80" y1="-202.5" x2="80" y2="-100.5"/>
	<line class="st4" x1="72" y1="-202" x2="72" y2="-100"/>
	<rect x="48" y="-202.7" class="st3" width="7.5" height="102"/>
	<line class="st4" x1="56" y1="-202.5" x2="56" y2="-100.5"/>
	<line class="st4" x1="48" y1="-202" x2="48" y2="-100"/>
	<rect x="24" y="-202.7" class="st3" width="7.5" height="102"/>
	<line class="st4" x1="32" y1="-202.5" x2="32" y2="-100.5"/>
	<line class="st4" x1="24" y1="-202" x2="24" y2="-100"/>
	<rect y="-202.7" class="st3" width="7.5" height="102"/>
	<line class="st4" x1="8" y1="-202.5" x2="8" y2="-100.5"/>
	<rect x="96" y="-302.7" class="st3" width="7.5" height="102"/>
	<line class="st4" x1="96" y1="-302" x2="96" y2="-200"/>
	<rect x="72" y="-302.7" class="st3" width="7.5" height="102"/>
	<line class="st4" x1="80" y1="-302.5" x2="80" y2="-200.5"/>
	<line class="st4" x1="72" y1="-302" x2="72" y2="-200"/>
	<rect x="48" y="-302.7" class="st3" width="7.5" height="102"/>
	<line class="st4" x1="56" y1="-302.5" x2="56" y2="-200.5"/>
	<line class="st4" x1="48" y1="-302" x2="48" y2="-200"/>
	<rect x="24" y="-302.7" class="st3" width="7.5" height="102"/>
	<line class="st4" x1="32" y1="-302.5" x2="32" y2="-200.5"/>
	<line class="st4" x1="24" y1="-302" x2="24" y2="-200"/>
	<rect y="-302.7" class="st3" width="7.5" height="102"/>
	<line class="st4" x1="8" y1="-302.5" x2="8" y2="-200.5"/>
</pattern>
<pattern x="-49.6" y="-2096.6" width="258.4" height="221" patternUnits="userSpaceOnUse" viewBox="67.9 -285.2 258.4 221">
	<rect x="67.9" y="-285.2" class="st0" width="258.4" height="221"/>
	<line class="st5" x1="326.8" y1="-83.1" x2="265.4" y2="-21.7"/>
	<line class="st6" x1="292.6" y1="-85.9" x2="292.6" y2="-85.9"/>
	<line class="st5" x1="275.1" y1="-68.4" x2="213.7" y2="-7"/>
	<line class="st6" x1="241" y1="-71.2" x2="241" y2="-71.2"/>
	<line class="st6" x1="85.9" y1="-100.6" x2="85.9" y2="-100.6"/>
	<line class="st5" x1="68.4" y1="-83.1" x2="7" y2="-21.7"/>
	<line class="st5" x1="378.5" y1="-97.8" x2="317.1" y2="-36.5"/>
	<line class="st5" x1="326.8" y1="-156.8" x2="265.4" y2="-95.4"/>
	<line class="st6" x1="256.6" y1="-86.6" x2="256.6" y2="-86.6"/>
	<line class="st6" x1="292.6" y1="-159.6" x2="292.6" y2="-159.6"/>
	<line class="st5" x1="275.1" y1="-142.1" x2="213.7" y2="-80.7"/>
	<line class="st6" x1="205" y1="-71.9" x2="205" y2="-71.9"/>
	<line class="st6" x1="241" y1="-144.9" x2="241" y2="-144.9"/>
	<line class="st5" x1="223.4" y1="-127.3" x2="162" y2="-65.9"/>
	<line class="st6" x1="189.3" y1="-130.1" x2="189.3" y2="-130.1"/>
	<line class="st5" x1="171.7" y1="-112.6" x2="110.4" y2="-51.2"/>
	<line class="st6" x1="137.6" y1="-115.4" x2="137.6" y2="-115.4"/>
	<line class="st5" x1="120.1" y1="-97.8" x2="58.7" y2="-36.5"/>
	<line class="st6" x1="85.9" y1="-174.3" x2="85.9" y2="-174.3"/>
	<line class="st5" x1="68.4" y1="-156.8" x2="7" y2="-95.4"/>
	<line class="st5" x1="378.5" y1="-171.5" x2="317.1" y2="-110.1"/>
	<line class="st6" x1="308.3" y1="-101.4" x2="308.3" y2="-101.4"/>
	<line class="st5" x1="326.8" y1="-230.5" x2="265.4" y2="-169.1"/>
	<line class="st6" x1="256.6" y1="-160.3" x2="256.6" y2="-160.3"/>
	<line class="st6" x1="292.6" y1="-233.3" x2="292.6" y2="-233.3"/>
	<line class="st5" x1="275.1" y1="-215.7" x2="213.7" y2="-154.4"/>
	<line class="st6" x1="205" y1="-145.6" x2="205" y2="-145.6"/>
	<line class="st6" x1="241" y1="-218.5" x2="241" y2="-218.5"/>
	<line class="st5" x1="223.4" y1="-201" x2="162" y2="-139.6"/>
	<line class="st6" x1="153.3" y1="-130.9" x2="153.3" y2="-130.9"/>
	<line class="st6" x1="189.3" y1="-203.8" x2="189.3" y2="-203.8"/>
	<line class="st5" x1="171.7" y1="-186.3" x2="110.4" y2="-124.9"/>
	<line class="st6" x1="101.6" y1="-116.1" x2="101.6" y2="-116.1"/>
	<line class="st6" x1="137.6" y1="-189.1" x2="137.6" y2="-189.1"/>
	<line class="st5" x1="120.1" y1="-171.5" x2="58.7" y2="-110.1"/>
	<line class="st6" x1="85.9" y1="-248" x2="85.9" y2="-248"/>
	<line class="st5" x1="68.4" y1="-230.5" x2="7" y2="-169.1"/>
	<line class="st5" x1="378.5" y1="-245.2" x2="317.1" y2="-183.8"/>
	<line class="st6" x1="308.3" y1="-175.1" x2="308.3" y2="-175.1"/>
	<line class="st5" x1="326.8" y1="-304.2" x2="265.4" y2="-242.8"/>
	<line class="st6" x1="256.6" y1="-234" x2="256.6" y2="-234"/>
	<line class="st5" x1="275.1" y1="-289.4" x2="213.7" y2="-228"/>
	<line class="st6" x1="205" y1="-219.3" x2="205" y2="-219.3"/>
	<line class="st5" x1="223.4" y1="-274.7" x2="162" y2="-213.3"/>
	<line class="st6" x1="153.3" y1="-204.5" x2="153.3" y2="-204.5"/>
	<line class="st6" x1="189.3" y1="-277.5" x2="189.3" y2="-277.5"/>
	<line class="st5" x1="171.7" y1="-259.9" x2="110.4" y2="-198.6"/>
	<line class="st6" x1="101.6" y1="-189.8" x2="101.6" y2="-189.8"/>
	<line class="st6" x1="137.6" y1="-262.7" x2="137.6" y2="-262.7"/>
	<line class="st5" x1="120.1" y1="-245.2" x2="58.7" y2="-183.8"/>
	<line class="st5" x1="68.4" y1="-304.2" x2="7" y2="-242.8"/>
	<line class="st5" x1="378.5" y1="-318.9" x2="317.1" y2="-257.5"/>
	<line class="st6" x1="308.3" y1="-248.7" x2="308.3" y2="-248.7"/>
	<line class="st5" x1="223.4" y1="-348.4" x2="162" y2="-287"/>
	<line class="st6" x1="153.3" y1="-278.2" x2="153.3" y2="-278.2"/>
	<line class="st5" x1="171.7" y1="-333.6" x2="110.4" y2="-272.2"/>
	<line class="st6" x1="101.6" y1="-263.5" x2="101.6" y2="-263.5"/>
	<line class="st5" x1="120.1" y1="-318.9" x2="58.7" y2="-257.5"/>
</pattern>
<path class="st54" d="M49.4 24.6c-0.5 0.8-0.8 1.7-0.8 2.7 0 2.7 2.2 4.9 4.9 4.9s4.9-2.2 4.9-4.9c0-0.3 0-0.5-0.1-0.8 0.7 0.2 1.4 0.3 2.1 0.3 3.8 0 6.9-3.1 6.9-6.9 0-3.8-3.1-6.9-6.9-6.9 -2.2 0-4.2 1-5.4 2.6L49.4 24.6z"/>
<path class="st54" d="M35.8 44.5c-3.5-1.1-6.4-2.8-8.8-5.1 -2.8-2.7-4.3-6.3-4.3-10.5 0-3.1 0.8-6 2.3-8.6 1.5-2.6 3.8-4.7 6.8-6.3 3-1.6 6.7-2.3 11.1-2.3 3.6 0 6.8 0.5 9.3 1.4 2.5 0.9 4.5 2 6.1 3.1 1.5 1.2 2.6 2.1 3.2 2.8l0.8 1 -8.4 9.3 -1.1-0.8c-1.1-0.8-2.5-1.8-4.3-2.8 -1.6-0.9-3.5-1.4-5.7-1.4 -1.3 0-2.6 0.4-3.7 1.2 -1.3 0.9-1.4 1.7-1.4 2.2 0 0.8 0.2 1.9 2 2.9 0.4 0.2 0.8 0.4 1.2 0.6l1.1 0.5 -0.3 1.2c-0.1 0.3-0.1 0.6 0 1l0.3 1.4 -6.2 1.1 4.2 4.9 -1.2 1c-0.3 0.3-0.6 0.7-0.8 1.1 0 0.1 0 0.1-0.1 0.2l-0.4 1.5L35.8 44.5z"/>
<polygon class="st54" points="46.2 28.9 44.4 27.2 42.2 29.6 44.8 31.9 44.9 28.8 "/>
<circle class="st54" cx="40.2" cy="68.5" r="2"/>
<circle class="st54" cx="44.4" cy="68.5" r="2"/>
<path class="st54" d="M42.1 76.5c0.1 0 2-3.4 2-4.5S43.3 70 42.1 70s-2 0.9-2 2C40.1 73.2 42.1 76.5 42.1 76.5z"/>
<path class="st54" d="M41.7 67.9c-3.4 0-6.6-0.4-9.3-1.3 -2.6-0.8-5-1.9-7-3.3l-0.1-0.1 -0.1 0.1c-1.2 0.9-2.6 1.5-4.1 1.5 -3.6 0-6.5-2.9-6.5-6.5s2.9-6.5 6.5-6.5c0.2 0 0.3 0 0.5 0l0.2 0 0-0.2c-0.1-0.4-0.1-0.8-0.1-1.1 0-3.6 2.9-6.5 6.5-6.5 3.6 0 6.5 2.9 6.5 6.5 0 1-0.2 2-0.7 2.9l-0.1 0.1 0.1 0.1c0.1 0 0.1 0.1 0.2 0.1 2 1.3 4.5 1.9 7.2 1.9 1 0 2.1-0.2 3.1-0.6 1-0.4 1.8-0.9 2.4-1.6 0.6-0.6 0.9-1.4 0.9-2.3 0-1.5-0.7-2.6-2.2-3.5 -0.3-0.2-0.7-0.4-1.1-0.5l-1.3-0.5c-0.3-0.1-0.6-0.2-1-0.2 -1.2 0-2.3 0.8-2.8 1.9l-0.3 1 -1-0.3c-2.4-0.9-3.8-3.5-3.1-5.9 0-0.1 0.1-0.3 0.1-0.4 0.2-0.5 0.4-0.9 0.7-1.3L35.9 41l-5.4-6.4 8.2-1.5 0-0.1c0-0.3 0.1-0.5 0.1-0.8 0.1-0.2 0.1-0.4 0.2-0.6 0.7-2 2.6-3.3 4.7-3.3 0.5 0 1 0.1 1.4 0.2l1 0.3 -0.4 1c-0.1 0.3-0.2 0.6-0.2 0.9 0 1.3 0.8 2.4 1.9 2.8l0 0 5.5 2.3 0 0c0.2 0.1 0.4 0.2 0.7 0.3 2.5 1.3 4.5 3.1 6.1 5.5 1.6 2.4 2.4 5.4 2.4 9.1 0 3.3-0.9 6.2-2.8 8.8 -1.8 2.5-4.3 4.5-7.4 6C49 67.1 45.5 67.9 41.7 67.9z"/>
<path class="st55" d="M39.9 66.1c-3.4 0-6.6-0.4-9.3-1.3 -2.6-0.8-5-1.9-7-3.3l-0.1-0.1 -0.1 0.1c-1.2 0.9-2.6 1.5-4.1 1.5 -3.6 0-6.5-2.9-6.5-6.5s2.9-6.5 6.5-6.5c0.2 0 0.3 0 0.5 0l0.2 0 0-0.2c-0.1-0.4-0.1-0.8-0.1-1.1 0-3.6 2.9-6.5 6.5-6.5 3.6 0 6.5 2.9 6.5 6.5 0 1-0.2 2-0.7 2.9l-0.1 0.1 0.1 0.1c0.1 0 0.1 0.1 0.2 0.1 2 1.3 4.5 1.9 7.2 1.9 1 0 2.1-0.2 3.1-0.6 1-0.4 1.8-0.9 2.4-1.6 0.6-0.6 0.9-1.4 0.9-2.3 0-1.5-0.7-2.6-2.2-3.5 -0.3-0.2-0.7-0.4-1.1-0.5l-1.3-0.5c-0.3-0.1-0.6-0.2-1-0.2 -1.2 0-2.3 0.8-2.8 1.9l-0.3 1 -1-0.3c-2.4-0.9-3.8-3.5-3.1-5.9 0-0.1 0.1-0.3 0.1-0.4 0.2-0.5 0.4-0.9 0.7-1.3l0.1-0.1 -5.4-6.4 8.2-1.5 0-0.1c0-0.3 0.1-0.5 0.1-0.8 0.1-0.2 0.1-0.4 0.2-0.6 0.7-2 2.6-3.3 4.7-3.3 0.5 0 1 0.1 1.4 0.2l1 0.3 -0.4 1c-0.1 0.3-0.2 0.6-0.2 0.9 0 1.3 0.8 2.4 1.9 2.8l0 0 5.5 2.3 0 0c0.2 0.1 0.4 0.2 0.7 0.3 2.5 1.3 4.5 3.1 6.1 5.5 1.6 2.4 2.4 5.4 2.4 9.1 0 3.3-0.9 6.2-2.8 8.8 -1.8 2.5-4.3 4.5-7.4 6C47.2 65.4 43.7 66.1 39.9 66.1z"/>
<polygon class="st55" points="42.7 8.2 39.2 8.2 39.2 3.5 41 4.6 42.7 3.5 "/>
<polygon class="st55" points="42.7 8.2 39.2 8.2 39.2 3.5 41 4.6 42.7 3.5 "/>
<polygon class="st54" points="39.9 7.5 39.9 4.8 41 5.5 42 4.8 42 7.5 "/>
<circle class="st55" cx="41" cy="11.3" r="4.6"/>
<path class="st55" d="M34 42.7c-3.5-1.1-6.4-2.8-8.8-5.1 -2.8-2.7-4.3-6.3-4.3-10.5 0-3.1 0.8-6 2.3-8.6 1.5-2.6 3.8-4.7 6.8-6.3 3-1.6 6.7-2.3 11.1-2.3 3.6 0 6.8 0.5 9.3 1.4 2.5 0.9 4.5 2 6.1 3.1 1.5 1.2 2.6 2.1 3.2 2.8l0.8 1 -8.4 9.3 -1.1-0.8c-1.1-0.8-2.5-1.8-4.3-2.8 -1.6-0.9-3.5-1.4-5.7-1.4 -1.3 0-2.6 0.4-3.7 1.2 -1.3 0.9-1.4 1.7-1.4 2.2 0 0.8 0.2 1.9 2 2.9 0.4 0.2 0.8 0.4 1.2 0.6l1.1 0.5 -0.3 1.2c-0.1 0.3-0.1 0.6 0 1l0.3 1.4 -6.2 1.1 4.2 4.9 -1.2 1c-0.3 0.3-0.6 0.7-0.8 1.1 0 0.1 0 0.1-0.1 0.2l-0.4 1.5L34 42.7z"/><path class="st17" d="M41 11.3c3.5 0 6.4 0.5 8.8 1.3 2.4 0.9 4.3 1.9 5.7 2.9 1.4 1.1 2.4 1.9 3 2.6l-6.6 7.3c-1.1-0.9-2.6-1.8-4.4-2.9 -1.8-1.1-4-1.6-6.5-1.6 -1.6 0-3.1 0.5-4.5 1.4 -1.4 0.9-2.1 2.1-2.1 3.4 0 1.7 0.9 3.1 2.8 4.2 0.4 0.2 0.8 0.5 1.3 0.7 -0.1 0.5-0.1 1 0 1.6l-7.3 1.3 4.8 5.7c-0.5 0.4-1 1-1.2 1.7 0 0.1-0.1 0.2-0.1 0.4 -3.3-1-6-2.6-8.2-4.7 -2.5-2.4-3.8-5.6-3.8-9.5 0-2.8 0.7-5.5 2.1-7.8 1.4-2.4 3.4-4.3 6.2-5.7S36.8 11.3 41 11.3M41 10.6c-4.3 0-7.9 0.8-10.7 2.3 -2.9 1.5-5 3.5-6.5 6 -1.4 2.5-2.2 5.2-2.2 8.2 0 4.1 1.4 7.4 4.1 10 2.3 2.2 5.2 3.9 8.5 4.9l0.7 0.2 0.2-0.7c0-0.1 0.1-0.2 0.1-0.3 0.2-0.5 0.5-1 1-1.4l0.6-0.5 -0.5-0.6L32.3 34l6.1-1.1 0.7-0.1 -0.1-0.7c-0.1-0.4-0.1-0.8 0-1.3l0.1-0.6 -0.5-0.2c-0.5-0.2-0.9-0.4-1.2-0.6 -1.6-0.9-2.4-2.1-2.4-3.6 0-1.1 0.6-2 1.8-2.8 1.3-0.9 2.7-1.3 4.1-1.3 2.4 0 4.4 0.5 6.1 1.5 1.8 1.1 3.3 2.1 4.4 2.9l0.5 0.4 0.5-0.5 6.7-7.3 0.4-0.5 -0.4-0.5c-0.6-0.7-1.6-1.6-3.1-2.7 -1.5-1.1-3.5-2.1-5.9-3C47.6 11 44.6 10.6 41 10.6L41 10.6z"/><path class="st17" d="M41 8.2c1.7 0 3.1 1.4 3.1 3.1 0 1.7-1.4 3.1-3.1 3.1s-3.1-1.4-3.1-3.1C37.9 9.6 39.2 8.2 41 8.2M41 7.6c-2 0-3.7 1.7-3.7 3.7s1.7 3.7 3.7 3.7 3.7-1.6 3.7-3.7S43 7.6 41 7.6L41 7.6z"/><path class="st17" d="M41 8.2c1.7 0 3.1 1.4 3.1 3.1 0 1.7-1.4 3.1-3.1 3.1s-3.1-1.4-3.1-3.1C37.9 9.6 39.2 8.2 41 8.2M41 7.6c-2 0-3.7 1.7-3.7 3.7s1.7 3.7 3.7 3.7 3.7-1.6 3.7-3.7S43 7.6 41 7.6L41 7.6z"/><path class="st17" d="M41 8.2c1.7 0 3.1 1.4 3.1 3.1 0 1.7-1.4 3.1-3.1 3.1s-3.1-1.4-3.1-3.1C37.9 9.6 39.2 8.2 41 8.2M41 7.6c-2 0-3.7 1.7-3.7 3.7s1.7 3.7 3.7 3.7 3.7-1.6 3.7-3.7S43 7.6 41 7.6L41 7.6z"/><path class="st17" d="M58.6 11.3c3.8 0 6.9 3.1 6.9 6.9s-3.1 6.9-6.9 6.9c-0.7 0-1.4-0.1-2.1-0.3 0 0.3 0.1 0.5 0.1 0.8 0 2.7-2.2 4.9-4.9 4.9s-4.9-2.2-4.9-4.9c0-1 0.3-1.9 0.8-2.7l5.5-8.8C54.4 12.4 56.4 11.3 58.6 11.3M58.6 10.7c-2.3 0-4.4 1.1-5.9 2.9l0 0 0 0 -5.5 8.9c-0.6 0.9-0.9 1.9-0.9 3 0 3 2.5 5.5 5.5 5.5 3 0 5.5-2.4 5.5-5.5 0 0 0 0 0 0 0.5 0.1 1 0.1 1.4 0.1 4.1 0 7.5-3.3 7.5-7.5S62.7 10.7 58.6 10.7L58.6 10.7z"/><path class="st112" d="M19.3 56.6l7.4-8c1.3 1.4 3.1 2.8 5.3 4.2 2.2 1.4 4.8 2.1 7.8 2.1 1.2 0 2.3-0.2 3.4-0.6 1.1-0.4 2.1-1.1 2.8-1.9 0.7-0.8 1.1-1.8 1.1-3 0-1.9-0.9-3.4-2.7-4.4 -1.8-1.1-4.7-2.1-8.7-3.1 -3.9-1-7.1-2.7-9.6-5.1 -2.5-2.4-3.8-5.6-3.8-9.5 0-2.9 0.7-5.5 2.1-7.8 1.4-2.4 3.4-4.3 6.2-5.7 2.8-1.4 6.2-2.2 10.4-2.2 3.5 0 6.4 0.5 8.8 1.3 2.4 0.9 4.3 1.9 5.7 2.9 1.4 1.1 2.4 1.9 3 2.6l-6.6 7.3c-1.1-0.9-2.6-1.8-4.4-2.9 -1.8-1.1-4-1.6-6.5-1.6 -1.6 0-3.1 0.5-4.5 1.4 -1.4 0.9-2.1 2.1-2.1 3.4 0 1.7 0.9 3.1 2.8 4.2 1.8 1.1 4.4 2 7.6 2.7 2.5 0.6 4.9 1.5 7.2 2.8 2.3 1.2 4.2 2.9 5.7 5.1 1.5 2.2 2.2 5.1 2.2 8.6 0 3.1-0.9 5.8-2.6 8.2 -1.7 2.4-4.1 4.3-7 5.7 -3 1.4-6.3 2.1-9.9 2.1 -3.4 0-6.3-0.4-8.9-1.2 -2.6-0.8-4.9-1.9-6.8-3.2C22.3 59.4 20.7 58 19.3 56.6z"/><path class="st3" d="M35.7 39.3l-4.8-5.7 7.3-1.3c-0.1-0.5-0.1-1 0-1.5 -0.5-0.2-0.9-0.4-1.3-0.7 -1.8-1.1-2.7-2.5-2.7-4.2 0-1.3 0.7-2.5 2.1-3.4 1.4-0.9 2.9-1.4 4.6-1.4 2.5 0 4.7 0.6 6.5 1.6 1.8 1.1 3.3 2.1 4.4 2.9l6.7-7.3c-0.6-0.7-1.6-1.5-3-2.6 -1.4-1.1-3.3-2-5.7-2.9 -2.4-0.9-5.3-1.3-8.8-1.3 -4.2 0-7.6 0.7-10.4 2.2 -2.7 1.5-4.8 3.4-6.2 5.7s-2.1 5-2.1 7.8c0 3.9 1.3 7 3.8 9.5 2.2 2.2 5 3.7 8.3 4.7 0-0.1 0.1-0.2 0.1-0.3C34.7 40.3 35.1 39.7 35.7 39.3z"/><circle class="st17" cx="41" cy="11.3" r="2.5"/><path class="st3" d="M41 9.4c1.1 0 1.9 0.9 1.9 1.9s-0.9 1.9-1.9 1.9 -1.9-0.9-1.9-1.9S39.9 9.4 41 9.4M41 8.2c-1.7 0-3.1 1.4-3.1 3.1 0 1.7 1.4 3.1 3.1 3.1s3.1-1.4 3.1-3.1C44 9.6 42.7 8.2 41 8.2L41 8.2z"/><rect x="37.5" y="11.9" transform="matrix(-0.7071 -0.7071 0.7071 -0.7071 59.1057 55.0342)" class="st113" width="6.8" height="6.8"/><rect x="39.3" y="13.6" transform="matrix(-0.7071 -0.7071 0.7071 -0.7071 59.1057 55.0342)" class="st54" width="3.4" height="3.4"/><circle class="st114" cx="40.9" cy="15.3" r="0.9"/><circle class="st17" cx="41" cy="11.3" r="1.9"/><circle class="st54" cx="41" cy="11.3" r="1"/><path class="st55" d="M33.2 39c-2.2-0.9-4.2-2.1-5.8-3.7 -2.2-2.1-3.3-4.8-3.3-8.2 0-2.5 0.6-4.9 1.8-6.9 1.2-2.1 3.1-3.8 5.5-5.1 1.1-0.6 4.4-1.5 5.8-1.9l-2.3 2.4 4 4c-0.7 0.3-3 1-3.6 1.4 -2.4 1.6-2.9 3.5-2.9 4.9 0 1.5 0.5 3.5 2.8 5.2L27.6 32.3 33.2 39z"/><pattern xlink:href="#New_Pattern" patternTransform="matrix(0.1471 0 0 0.1471 -7587.0522 -5074.6958)"/><path class="st65" d="M33.2 39c-2.2-0.9-4.2-2.1-5.8-3.7 -2.2-2.1-3.3-4.8-3.3-8.2 0-2.5 0.6-4.9 1.8-6.9 1.2-2.1 3.1-3.8 5.5-5.1 1.1-0.6 4.4-1.5 5.8-1.9l-2.3 2.4 4 4c-0.7 0.3-3 1-3.6 1.4 -2.4 1.6-2.9 3.5-2.9 4.9 0 1.5 0.5 3.5 2.8 5.2L27.6 32.3 33.2 39z"/><path class="st55" d="M51.6 23.2c-0.9-0.6-2-1.3-3.3-2.1 -1.1-0.7-3.9-1.5-5.1-1.8l3.7-3.8 -3-2.9c1 0.2 3.3 0.5 5.5 1.3 2.5 0.9 3.8 2.1 5.1 3 0.7 0.5 1.2 0.9 1.6 1.3L51.6 23.2z"/><pattern xlink:href="#dots_dark" patternTransform="matrix(0.1471 0 0 0.1471 -7587.0522 -5074.6958)"/><path class="st66" d="M51.6 23.2c-0.9-0.6-2-1.3-3.3-2.1 -1.1-0.7-3.9-1.5-5.1-1.8l3.7-3.8 -3-2.9c1 0.2 3.3 0.5 5.5 1.3 2.5 0.9 3.8 2.1 5.1 3 0.7 0.5 1.2 0.9 1.6 1.3L51.6 23.2z"/><circle class="st3" cx="58.5" cy="18.2" r="6.9"/><circle class="st54" cx="58.5" cy="18.2" r="4.7"/><path class="st117" d="M58.9 19.7c-0.1-0.1-0.1-0.1-0.2-0.3l-0.2-0.7 -0.2 0.7c0 0.1-0.1 0.2-0.1 0.2 -0.1 0.1-0.1 0.1-0.2 0.1 -0.1 0-0.2 0-0.3 0 -0.1-0.1-0.2-0.1-0.2-0.3 0-0.1 0-0.3 0.1-0.4l0.5-0.5 -0.7 0.2c-0.1 0-0.3 0-0.4 0 -0.1-0.1-0.2-0.1-0.2-0.3 0-0.1 0-0.2 0.1-0.3 0.1-0.1 0.1-0.1 0.3-0.2 0.1 0 0.1 0 0.2 0l0.7 0.1 -0.5-0.5c-0.1-0.1-0.1-0.2-0.1-0.2 0-0.1 0-0.2 0-0.2 0-0.1 0.1-0.1 0.2-0.2 0 0 0.1 0 0.1 0 0.1 0 0.2 0 0.3 0.1 0.1 0.1 0.1 0.1 0.2 0.3l0.2 0.7 0.2-0.7c0-0.1 0.1-0.2 0.1-0.2 0.1-0.1 0.1-0.1 0.2-0.1 0.1 0 0.2 0 0.3 0.1 0.1 0.1 0.2 0.1 0.2 0.3 0 0.1 0 0.3-0.1 0.4l-0.4 0.5 0.7-0.1c0.1 0 0.3 0 0.4 0 0.1 0.1 0.2 0.2 0.2 0.3 0 0.1 0 0.2-0.1 0.3 -0.1 0.1-0.1 0.1-0.2 0.2 -0.1 0-0.1 0-0.2 0l-0.7-0.1 0.5 0.5c0.1 0.1 0.1 0.2 0.1 0.3 0 0.1 0 0.2 0 0.2 0 0.1-0.1 0.1-0.2 0.2 0 0-0.1 0-0.1 0.1C59.1 19.8 59 19.7 58.9 19.7z"/><circle class="st3" cx="51.6" cy="25.6" r="4.9"/><path class="st118" d="M52.3 28.1c-0.1-0.1-0.3-0.3-0.3-0.5l-0.4-1.2 -0.4 1.2c0 0.2-0.1 0.3-0.2 0.4 -0.1 0.1-0.2 0.2-0.3 0.2 -0.2 0-0.3 0-0.5-0.1 -0.2-0.1-0.3-0.3-0.3-0.5C49.7 27.5 49.8 27.2 50 27l0.8-1 -1.2 0.3c-0.2 0.1-0.5 0-0.6-0.1 -0.2-0.1-0.3-0.3-0.3-0.5 0-0.2 0-0.4 0.1-0.5 0.1-0.2 0.3-0.3 0.5-0.3 0.1 0 0.3 0 0.4 0l1.2 0.2 -0.9-0.9c-0.1-0.2-0.2-0.3-0.2-0.5 0-0.1 0-0.3 0.1-0.4 0.1-0.1 0.2-0.2 0.3-0.3 0.1 0 0.2-0.1 0.3-0.1 0.2 0 0.4 0 0.5 0.1 0.2 0.1 0.3 0.3 0.3 0.5l0.4 1.2 0.4-1.2c0.1-0.2 0.1-0.3 0.2-0.4 0.1-0.1 0.2-0.2 0.4-0.2 0.2 0 0.4 0 0.5 0.1 0.2 0.1 0.3 0.3 0.4 0.5 0 0.2 0 0.5-0.2 0.7l-0.8 1 1.2-0.3c0.3-0.1 0.5 0 0.7 0.1 0.2 0.1 0.3 0.3 0.3 0.5 0 0.2 0 0.4-0.1 0.5 -0.1 0.2-0.3 0.3-0.5 0.3 -0.1 0-0.2 0-0.4 0l-1.2-0.3 0.9 1c0.1 0.2 0.2 0.3 0.3 0.5 0 0.1 0 0.3-0.1 0.4 -0.1 0.1-0.2 0.2-0.3 0.3 -0.1 0-0.2 0.1-0.2 0.1C52.6 28.3 52.5 28.2 52.3 28.1z"/><path class="st119" d="M23.5 60.1c0.3 0.2 0.4 0.3 0.7 0.5 1.9 1.3 4.2 2.4 6.8 3.2 2.6 0.8 5.6 1.2 9 1.2 3.7 0 7-0.7 9.9-2.1 3-1.4 5.3-3.3 7-5.7 1.7-2.4 2.6-5.1 2.6-8.2 0-3.5-0.7-6.4-2.2-8.6 -1.5-2.2-3.4-3.9-5.7-5.1 -0.2-0.1-0.4-0.2-0.6-0.3l-5.5-2.3c-1.6-0.6-2.6-2.1-2.6-3.8 0-0.4 0.1-0.8 0.2-1.3 -2-0.6-4.1 0.5-4.8 2.4 0 0.2-0.1 0.3-0.1 0.5 -0.1 0.5-0.1 1 0 1.6l-7.3 1.3 4.8 5.7c-0.5 0.4-1 1-1.2 1.7 0 0.1-0.1 0.2-0.1 0.4l0 0c-0.5 1.9 0.6 4 2.5 4.7 0.7-2 3-3.1 5.1-2.4l1.4 0.5c0.4 0.2 0.8 0.4 1.2 0.6 1.8 1.1 2.8 2.6 2.8 4.4 0 1.2-0.4 2.2-1.1 3 -0.7 0.8-1.7 1.5-2.8 1.9 -1.1 0.4-2.3 0.7-3.4 0.7 -3 0-5.5-0.7-7.8-2.1 -0.4-0.3-0.7-0.5-1.1-0.8l0 0c0.7-0.9 1.1-2 1.1-3.3 0-3-2.5-5.5-5.5-5.5s-5.5 2.5-5.5 5.5c0 1 0.3 2 0.8 2.9 -0.7-0.3-1.5-0.5-2.3-0.5 -3 0-5.5 2.5-5.5 5.5S16.3 62 19.3 62C21 62 22.5 61.3 23.5 60.1L23.5 60.1z"/><path class="st120" d="M23.5 60.1c0.3 0.2 0.4 0.3 0.7 0.5 1.9 1.3 4.2 2.4 6.8 3.2 2.6 0.8 5.6 1.2 9 1.2 3.7 0 7-0.7 9.9-2.1 3-1.4 5.3-3.3 7-5.7 1.7-2.4 2.6-5.1 2.6-8.2 0-3.5-0.7-6.4-2.2-8.6 -1.5-2.2-3.4-3.9-5.7-5.1 -0.2-0.1-0.4-0.2-0.6-0.3l-5.5-2.3c-1.6-0.6-2.6-2.1-2.6-3.8 0-0.4 0.1-0.8 0.2-1.3 -2-0.6-4.1 0.5-4.8 2.4 0 0.2-0.1 0.3-0.1 0.5 -0.1 0.5-0.1 1 0 1.6l-7.3 1.3 4.8 5.7c-0.5 0.4-1 1-1.2 1.7 0 0.1-0.1 0.2-0.1 0.4l0 0c-0.5 1.9 0.6 4 2.5 4.7 0.7-2 3-3.1 5.1-2.4l1.4 0.5c0.4 0.2 0.8 0.4 1.2 0.6 1.8 1.1 2.8 2.6 2.8 4.4 0 1.2-0.4 2.2-1.1 3 -0.7 0.8-1.7 1.5-2.8 1.9 -1.1 0.4-2.3 0.7-3.4 0.7 -3 0-5.5-0.7-7.8-2.1 -0.4-0.3-0.7-0.5-1.1-0.8l0 0c0.7-0.9 1.1-2 1.1-3.3 0-3-2.5-5.5-5.5-5.5s-5.5 2.5-5.5 5.5c0 1 0.3 2 0.8 2.9 -0.7-0.3-1.5-0.5-2.3-0.5 -3 0-5.5 2.5-5.5 5.5S16.3 62 19.3 62C21 62 22.5 61.3 23.5 60.1L23.5 60.1z"/><path class="st55" d="M19.3 52.7c-2.1 0-3.7 1.7-3.7 3.8s1.7 3.8 3.8 3.8c2.1 0 3.8-1.7 3.8-3.7S21.4 52.7 19.3 52.7z"/><path class="st55" d="M26.4 44.9c-2.1 0-3.7 1.7-3.7 3.8s1.7 3.8 3.8 3.8 3.8-1.7 3.8-3.7S28.5 44.9 26.4 44.9z"/><polygon class="st55" points="19.9 52.7 24.2 53.8 22.9 49.9 25.6 47.9 29.4 56.5 22.9 57.7 19.9 56 "/><path class="st55" d="M21.7 56.5c1 0.9 2.1 1.8 3.4 2.7 1.8 1.2 3.9 2.2 6.4 3 2.4 0.8 5.3 1.1 8.4 1.1 3.4 0 6.5-0.6 9.2-1.9 2.7-1.2 4.8-3 6.4-5.1 1.5-2.1 2.3-4.4 2.3-7.1 0-3.1-0.6-5.7-1.9-7.6 -1.3-1.9-3-3.5-5.1-4.5 -0.2-0.1-0.4-0.2-0.6-0.3l-5.4-2.2c-2.1-0.8-3.5-2.7-3.7-4.9 -0.6 0.2-1 0.7-1.2 1.3 0 0.1 0 0.2-0.1 0.2 -0.1 0.3-0.1 0.6 0 0.9l0.3 1.7 -1.7 0.3 -4.3 0.8 2.9 3.4 1.2 1.4 -1.4 1.1c-0.3 0.3-0.5 0.6-0.7 0.9 0 0.1 0 0.1-0.1 0.2 -0.2 0.6 0 1.2 0.3 1.7 1.1-1.1 2.6-1.8 4.2-1.8 0.7 0 1.3 0.1 1.9 0.3l1.4 0.5 0.1 0 0.1 0c0.5 0.2 0.9 0.5 1.3 0.7 2.4 1.4 3.6 3.5 3.6 6 0 1.6-0.5 3-1.5 4.2 -0.9 1.1-2.1 1.9-3.5 2.4 -1.3 0.5-2.7 0.8-4.1 0.8 -3.3 0-6.2-0.8-8.7-2.3 -1.7-1-3.1-2.1-4.3-3.2L21.7 56.5z"/><pattern xlink:href="#New_Pattern_2" patternTransform="matrix(0.1471 0 0 0.1471 -7031.9214 -4932.3037)"/><path d="M26.6 52.2c1.1 0.9 2.5 2 4 2.9 2.6 1.6 5.7 2.5 9.2 2.5 1.5 0 3-0.3 4.4-0.8 1.5-0.6 2.8-1.5 3.8-2.6 1.2-1.3 1.8-2.9 1.8-4.8 0-2.8-1.4-5.2-4.1-6.7 -0.4-0.2-0.9-0.5-1.4-0.7l-0.1 0 -1.5-0.5c-0.7-0.3-1.5-0.4-2.2-0.4 -1.3 0-2.5 0.4-3.6 1.1 0.1-0.2 0.2-0.4 0.4-0.5l2.1-1.7 -3.6-4.3 5.4-1 -0.4-2.6c0-0.1 0-0.2 0-0.3 0.7 1.7 2.1 3.1 3.8 3.8l5.4 2.2c0.2 0.1 0.3 0.2 0.5 0.3 1.9 1 3.5 2.5 4.7 4.3 1.2 1.7 1.8 4.1 1.8 7.1 0 2.5-0.7 4.7-2.1 6.6 -1.5 2-3.5 3.6-6 4.8 -2.6 1.2-5.6 1.8-8.8 1.8 -3.1 0-5.8-0.4-8.2-1.1 -2.3-0.7-4.4-1.7-6.1-2.8 -1-0.6-2.2-1.7-3-2.3 0 0-1.9 3.1-3.2 3.1 -1.5 0-2.7-1.2-2.7-2.7s1.2-2.7 2.7-2.7c0.7 0 6.1 1.3 6.1 1.3s-1.8-6.2-1.8-6.4c0-1.5 1.2-2.7 2.7-2.7 1.5 0 2.7 1.2 2.7 2.7C29.2 49.8 26.6 52.2 26.6 52.2z" style="fill:url(#SVGID_3_);stroke-width:0.6;stroke:#42433E"/></svg>